<svg xmlns="http://www.w3.org/2000/svg" viewBox="0 0 960 620" font-family="'Inter', 'SF Pro Display', 'Segoe UI', system-ui, -apple-system, sans-serif">
  <defs>
    <!-- Premium Gradients -->
    <linearGradient id="gradDev" x1="0%" y1="0%" x2="100%" y2="100%">
      <stop offset="0%" stop-color="#fcd34d" />
      <stop offset="100%" stop-color="#f59e0b" />
    </linearGradient>
    <linearGradient id="gradProject" x1="0%" y1="0%" x2="100%" y2="100%">
      <stop offset="0%" stop-color="#c084fc" />
      <stop offset="100%" stop-color="#8b5cf6" />
    </linearGradient>
    <linearGradient id="gradKSail" x1="0%" y1="0%" x2="100%" y2="100%">
      <stop offset="0%" stop-color="#34d399" />
      <stop offset="50%" stop-color="#22c55e" />
      <stop offset="100%" stop-color="#16a34a" />
    </linearGradient>
    <linearGradient id="gradCluster" x1="0%" y1="0%" x2="100%" y2="100%">
      <stop offset="0%" stop-color="#60a5fa" />
      <stop offset="100%" stop-color="#3b82f6" />
    </linearGradient>
    <linearGradient id="bgGrad" x1="0%" y1="0%" x2="100%" y2="100%">
      <stop offset="0%" stop-color="#0f172a" />
      <stop offset="50%" stop-color="#0c1222" />
      <stop offset="100%" stop-color="#020617" />
    </linearGradient>
    <linearGradient id="sailGrad" x1="0%" y1="100%" x2="100%" y2="0%">
      <stop offset="0%" stop-color="#22c55e" />
      <stop offset="50%" stop-color="#4ade80" />
      <stop offset="100%" stop-color="#86efac" />
    </linearGradient>
    <linearGradient id="hullGrad" x1="0%" y1="0%" x2="0%" y2="100%">
      <stop offset="0%" stop-color="#166534" />
      <stop offset="100%" stop-color="#14532d" />
    </linearGradient>
    <linearGradient id="oceanGrad" x1="0%" y1="0%" x2="0%" y2="100%">
      <stop offset="0%" stop-color="#22c55e" stop-opacity="0.08" />
      <stop offset="100%" stop-color="#0ea5e9" stop-opacity="0.03" />
    </linearGradient>
    <linearGradient id="centerGlowGrad" x1="0%" y1="0%" x2="100%" y2="100%">
      <stop offset="0%" stop-color="#4ade80" stop-opacity="0.15" />
      <stop offset="50%" stop-color="#22c55e" stop-opacity="0.08" />
      <stop offset="100%" stop-color="#3b82f6" stop-opacity="0.12" />
    </linearGradient>

    <!-- Enhanced Glow Filters -->
    <filter id="glowDev" x="-50%" y="-50%" width="200%" height="200%">
      <feGaussianBlur in="SourceGraphic" stdDeviation="10" result="blur" />
      <feColorMatrix in="blur" type="matrix" values="1 0.8 0 0 0  0.6 0.4 0 0 0  0 0 0 0 0  0 0 0 0.4 0" />
      <feMerge>
        <feMergeNode />
        <feMergeNode in="SourceGraphic" />
      </feMerge>
    </filter>
    <filter id="glowProject" x="-50%" y="-50%" width="200%" height="200%">
      <feGaussianBlur in="SourceGraphic" stdDeviation="8" result="blur" />
      <feColorMatrix in="blur" type="matrix" values="0.6 0 0.8 0 0  0.2 0 0.6 0 0  0.8 0 1 0 0  0 0 0 0.35 0" />
      <feMerge>
        <feMergeNode />
        <feMergeNode in="SourceGraphic" />
      </feMerge>
    </filter>
    <filter id="glowKSail" x="-50%" y="-50%" width="200%" height="200%">
      <feGaussianBlur in="SourceGraphic" stdDeviation="12" result="blur" />
      <feColorMatrix in="blur" type="matrix" values="0.2 0 0 0 0  0.9 0.6 0.3 0 0  0.4 0.4 0.2 0 0  0 0 0 0.45 0" />
      <feMerge>
        <feMergeNode />
        <feMergeNode in="SourceGraphic" />
      </feMerge>
    </filter>
    <filter id="glowCluster" x="-50%" y="-50%" width="200%" height="200%">
      <feGaussianBlur in="SourceGraphic" stdDeviation="8" result="blur" />
      <feColorMatrix in="blur" type="matrix" values="0.3 0.3 1 0 0  0.3 0.5 1 0 0  0.6 0.8 1 0 0  0 0 0 0.35 0" />
      <feMerge>
        <feMergeNode />
        <feMergeNode in="SourceGraphic" />
      </feMerge>
    </filter>
    <filter id="softShadow" x="-20%" y="-20%" width="140%" height="140%">
      <feDropShadow dx="0" dy="4" stdDeviation="8" flood-color="#000" flood-opacity="0.35" />
    </filter>

    <!-- Markers -->
    <marker id="arrowDev" markerWidth="10" markerHeight="8" refX="9" refY="4" orient="auto">
      <path d="M0 0 L10 4 L0 8 L2 4 Z" fill="#f59e0b" />
    </marker>
    <marker id="arrowKSail" markerWidth="10" markerHeight="8" refX="9" refY="4" orient="auto">
      <path d="M0 0 L10 4 L0 8 L2 4 Z" fill="#22c55e" />
    </marker>
    <marker id="arrowGray" markerWidth="10" markerHeight="8" refX="9" refY="4" orient="auto">
      <path d="M0 0 L10 4 L0 8 L2 4 Z" fill="#64748b" />
    </marker>

    <!-- Grid Pattern -->
    <pattern id="grid" x="0" y="0" width="50" height="50" patternUnits="userSpaceOnUse">
      <circle cx="25" cy="25" r="0.5" fill="#334155" fill-opacity="0.25" />
    </pattern>

    <!-- Subtle wave accent -->
    <pattern id="waves" x="0" y="0" width="180" height="16" patternUnits="userSpaceOnUse">
      <path d="M0 8 Q22 3 45 8 T90 8 T135 8 T180 8" fill="none" stroke="#4ade80" stroke-width="0.6" stroke-opacity="0.18" />
      <path d="M0 12 Q22 7 45 12 T90 12 T135 12 T180 12" fill="none" stroke="#22c55e" stroke-width="0.4" stroke-opacity="0.12" />
    </pattern>

    <!-- Radial center glow -->
    <radialGradient id="centerGlow" cx="50%" cy="45%" r="50%">
      <stop offset="0%" stop-color="#22c55e" stop-opacity="0.08" />
      <stop offset="50%" stop-color="#3b82f6" stop-opacity="0.04" />
      <stop offset="100%" stop-color="#020617" stop-opacity="0" />
    </radialGradient>

    <!-- Sync icon gradient -->
    <linearGradient id="syncGrad" x1="0%" y1="0%" x2="100%" y2="100%">
      <stop offset="0%" stop-color="#4ade80" />
      <stop offset="100%" stop-color="#c084fc" />
    </linearGradient>
  </defs>

  <!-- Background -->
  <rect width="960" height="620" fill="url(#bgGrad)" />
  <rect width="960" height="620" fill="url(#grid)" />
  <rect width="960" height="620" fill="url(#centerGlow)" />

  <!-- Subtle ocean accent at bottom -->
  <rect x="0" y="520" width="960" height="100" fill="url(#oceanGrad)" />
  <rect x="0" y="565" width="960" height="55" fill="url(#waves)" opacity="0.7">
    <animate attributeName="x" from="0" to="-180" dur="12s" repeatCount="indefinite" />
  </rect>
  <rect x="0" y="578" width="960" height="42" fill="url(#waves)" opacity="0.4">
    <animate attributeName="x" from="-90" to="-270" dur="18s" repeatCount="indefinite" />
  </rect>
  <rect x="0" y="592" width="960" height="28" fill="url(#waves)" opacity="0.2">
    <animate attributeName="x" from="-45" to="-225" dur="24s" repeatCount="indefinite" />
  </rect>

  <!-- Connection Lines -->
  <!-- Developer to Project -->
  <path d="M 400 115 Q 300 135, 250 180" fill="none" stroke="url(#gradDev)" stroke-width="2.5" stroke-dasharray="8,5" marker-end="url(#arrowDev)" opacity="0.85">
    <animate attributeName="stroke-dashoffset" from="26" to="0" dur="2s" repeatCount="indefinite" />
  </path>
  <g transform="translate(305, 132)">
    <rect x="-18" y="-10" width="36" height="16" rx="6" fill="#1e293b" stroke="#f59e0b" stroke-width="1.5" opacity="0.95" />
    <text x="0" y="3" text-anchor="middle" fill="#fcd34d" font-size="9" font-weight="600">edit</text>
  </g>

  <!-- Developer to KSail -->
  <path d="M 560 115 Q 660 135, 710 180" fill="none" stroke="url(#gradDev)" stroke-width="2.5" marker-end="url(#arrowDev)" opacity="0.9" />
  <g transform="translate(650, 132)">
    <rect x="-16" y="-10" width="32" height="16" rx="6" fill="#1e293b" stroke="#f59e0b" stroke-width="1.5" opacity="0.95" />
    <text x="0" y="3" text-anchor="middle" fill="#fcd34d" font-size="9" font-weight="600">run</text>
  </g>

  <!-- Project <-> KSail sync line -->
  <line x1="380" y1="270" x2="580" y2="270" stroke="#475569" stroke-width="2" stroke-dasharray="10,6" opacity="0.4">
    <animate attributeName="stroke-dashoffset" from="32" to="0" dur="1.5s" repeatCount="indefinite" />
  </line>
  <g transform="translate(480, 270)">
    <!-- Outer glow ring -->
    <circle r="38" fill="none" stroke="url(#syncGrad)" stroke-width="1" opacity="0.25">
      <animate attributeName="r" values="36;40;36" dur="3s" repeatCount="indefinite" />
      <animate attributeName="opacity" values="0.25;0.15;0.25" dur="3s" repeatCount="indefinite" />
    </circle>
    <circle r="34" fill="#0c1222" stroke="#334155" stroke-width="2" />
    <circle r="27" fill="#1e293b" />
    <!-- Sync arrows with enhanced styling -->
    <path d="M-12 -7 A16 16 0 1 1 12 -7" fill="none" stroke="#4ade80" stroke-width="3" stroke-linecap="round">
      <animate attributeName="stroke-opacity" values="1;0.6;1" dur="2s" repeatCount="indefinite" />
    </path>
    <polygon points="12,-7 18,-12 17,0" fill="#4ade80" />
    <path d="M12 7 A16 16 0 1 1 -12 7" fill="none" stroke="#c084fc" stroke-width="3" stroke-linecap="round">
      <animate attributeName="stroke-opacity" values="1;0.6;1" dur="2s" begin="1s" repeatCount="indefinite" />
    </path>
    <polygon points="-12,7 -18,12 -17,0" fill="#c084fc" />
  </g>
  <!-- Config sync label -->
  <g transform="translate(480, 322)">
    <rect x="-42" y="-11" width="84" height="20" rx="8" fill="#0c1222" stroke="#475569" stroke-width="1" opacity="0.9" />
    <text x="0" y="4" text-anchor="middle" fill="#94a3b8" font-size="9" font-weight="600">reads config</text>
  </g>

  <!-- KSail to Cluster -->
  <path d="M 710 345 Q 680 420, 600 460" fill="none" stroke="url(#gradKSail)" stroke-width="3" marker-end="url(#arrowKSail)" />
  <g transform="translate(668, 400)">
    <rect x="-36" y="-11" width="72" height="18" rx="6" fill="#0c1222" stroke="#22c55e" stroke-width="1.5" />
    <text x="0" y="4" text-anchor="middle" fill="#4ade80" font-size="9" font-weight="600">provisions</text>
  </g>

  <!-- Project to Cluster (GitOps) -->
  <path d="M 250 345 Q 280 420, 360 460" fill="none" stroke="#64748b" stroke-width="2" stroke-dasharray="6,4" marker-end="url(#arrowGray)" opacity="0.5">
    <animate attributeName="stroke-dashoffset" from="20" to="0" dur="2s" repeatCount="indefinite" />
  </path>
  <g transform="translate(292, 406)">
    <rect x="-28" y="-11" width="56" height="18" rx="6" fill="#0c1222" stroke="#64748b" stroke-width="1" opacity="0.75" />
    <text x="0" y="4" text-anchor="middle" fill="#94a3b8" font-size="9" font-weight="500">GitOps</text>
  </g>

  <!-- ===== DEVELOPER CARD ===== -->
  <g transform="translate(380, 30)" filter="url(#glowDev)">
    <rect width="200" height="85" rx="16" fill="#1e293b" filter="url(#softShadow)" />
    <rect width="200" height="85" rx="16" fill="none" stroke="url(#gradDev)" stroke-width="2" />
    <!-- Icon Circle -->
    <circle cx="42" cy="42" r="26" fill="#f59e0b" fill-opacity="0.15" />
    <g transform="translate(27, 26)">
      <circle cx="15" cy="9" r="7.5" fill="#fbbf24" />
      <path d="M3 28 C3 20, 10 16, 15 16 C20 16, 27 20, 27 28" fill="#fbbf24" />
    </g>
    <!-- Text -->
    <text x="80" y="38" fill="#fcd34d" font-size="16" font-weight="700" letter-spacing="0.5">DEVELOPER</text>
    <text x="80" y="56" fill="#cbd5e1" font-size="11" opacity="0.85">Your local machine</text>
  </g>

  <!-- ===== PROJECT CARD ===== -->
  <g transform="translate(105, 185)" filter="url(#glowProject)">
    <rect width="260" height="160" rx="16" fill="#1e293b" filter="url(#softShadow)" />
    <rect width="260" height="160" rx="16" fill="none" stroke="url(#gradProject)" stroke-width="2" />
    <!-- Folder Icon -->
    <g transform="translate(20, 20)">
      <path d="M0 10 L0 36 Q0 40, 4 40 L36 40 Q40 40, 40 36 L40 14 Q40 10, 36 10 L23 10 L19 5 L4 5 Q0 5, 0 10 Z" fill="#9333ea" />
      <path d="M0 14 L40 14 L40 36 Q40 40, 36 40 L4 40 Q0 40, 0 36 Z" fill="#a855f7" />
      <path d="M0 14 L40 14 L40 19 L0 19 Z" fill="#c084fc" opacity="0.5" />
    </g>
    <!-- Text -->
    <text x="72" y="40" fill="#c084fc" font-size="16" font-weight="700" letter-spacing="0.5">PROJECT</text>
    <text x="72" y="58" fill="#cbd5e1" font-size="11" opacity="0.85">Git Repository</text>

    <!-- File Browser -->
    <rect x="16" y="80" width="228" height="64" rx="10" fill="#0c1222" stroke="#334155" stroke-width="1" />
    <!-- Git branch visualization -->
    <g transform="translate(30, 94)">
      <circle cx="0" cy="0" r="5.5" fill="#a855f7" />
      <line x1="0" y1="6" x2="0" y2="28" stroke="#7c3aed" stroke-width="2.5" stroke-linecap="round" />
      <circle cx="0" cy="34" r="4.5" fill="#8b5cf6" />
      <circle cx="16" cy="17" r="4.5" fill="#c084fc" />
      <line x1="3" y1="5" x2="14" y2="14" stroke="#9333ea" stroke-width="2" stroke-linecap="round" />
    </g>
    <!-- Folder icon -->
    <g transform="translate(56, 94)">
      <path d="M0 2 L0 11 Q0 12, 1 12 L12 12 Q13 12, 13 11 L13 4 Q13 3, 12 3 L7.5 3 L6 1.5 L1 1.5 Q0 1.5, 0 2 Z" fill="#a855f7" />
    </g>
    <text x="74" y="106" fill="#e2e8f0" font-size="12" font-family="'JetBrains Mono', 'SF Mono', 'Fira Code', monospace">k8s/</text>
    <!-- File icon -->
    <g transform="translate(56, 115)">
      <path d="M1 0 L8 0 L11 3 L11 14 Q11 15, 10 15 L1 15 Q0 15, 0 14 L0 1 Q0 0, 1 0 Z" fill="#64748b" />
      <path d="M8 0 L8 3 L11 3" fill="none" stroke="#94a3b8" stroke-width="0.5" />
    </g>
    <text x="74" y="128" fill="#94a3b8" font-size="12" font-family="'JetBrains Mono', 'SF Mono', 'Fira Code', monospace">ksail.yaml</text>
  </g>

  <!-- ===== KSAIL CARD (Main Hero) ===== -->
  <g transform="translate(595, 185)" filter="url(#glowKSail)">
    <rect width="260" height="160" rx="16" fill="#1e293b" filter="url(#softShadow)" />
    <rect width="260" height="160" rx="16" fill="none" stroke="url(#gradKSail)" stroke-width="2.5" />

    <!-- Enhanced Sailboat Icon -->
    <g transform="translate(16, 12)">
      <!-- Water reflection -->
      <ellipse cx="26" cy="52" rx="22" ry="5" fill="#22c55e" opacity="0.2" />
      <!-- Hull -->
      <path d="M4 45 Q4 52, 16 52 L36 52 Q48 52, 48 45 L42 38 L10 38 Z" fill="url(#hullGrad)" />
      <!-- Hull highlight -->
      <path d="M10 38 L42 38 L44 43 L8 43 Z" fill="#22c55e" opacity="0.3" />
      <!-- Mast -->
      <rect x="24" y="8" width="4" height="32" rx="1" fill="#14532d" />
      <!-- Main Sail -->
      <path d="M28 10 L28 36 L46 36 Q48 28, 46 22 L36 12 Q32 8, 28 10 Z" fill="url(#sailGrad)" opacity="0.95" />
      <!-- Sail fold line -->
      <line x1="28" y1="14" x2="42" y2="30" stroke="#16a34a" stroke-width="0.6" opacity="0.4" />
      <!-- Front Sail (jib) -->
      <path d="M24 10 L24 34 L8 34 Q6 28, 8 24 L18 12 Q22 8, 24 10 Z" fill="#4ade80" opacity="0.75" />
      <!-- Flag -->
      <path d="M26 8 L26 1 L35 4.5 L26 8" fill="#ef4444" />
    </g>

    <!-- Text -->
    <text x="72" y="36" fill="#4ade80" font-size="22" font-weight="800" letter-spacing="1.2">KSAIL</text>
    <text x="72" y="54" fill="#86efac" font-size="10" font-weight="600" letter-spacing="0.5">One Binary • All Tools</text>

    <!-- Terminal Window -->
    <rect x="16" y="80" width="228" height="64" rx="10" fill="#020617" stroke="#16532d" stroke-width="1.5" />
    <!-- Window controls -->
    <circle cx="32" cy="96" r="5" fill="#ef4444" />
    <circle cx="48" cy="96" r="5" fill="#eab308" />
    <circle cx="64" cy="96" r="5" fill="#22c55e" />
    <!-- Command -->
    <text x="28" y="128" fill="#4ade80" font-size="13" font-family="'JetBrains Mono', 'SF Mono', 'Fira Code', monospace" font-weight="600">$ ksail cluster create</text>
    <rect x="208" y="114" width="12" height="18" rx="2" fill="#4ade80" opacity="0.9">
      <animate attributeName="opacity" values="0.9;0.2;0.9" dur="1s" repeatCount="indefinite" />
    </rect>
  </g>

  <!-- ===== KUBERNETES CLUSTER CARD ===== -->
  <g transform="translate(130, 460)" filter="url(#glowCluster)">
    <rect width="700" height="140" rx="20" fill="#1e293b" filter="url(#softShadow)" />
    <rect width="700" height="140" rx="20" fill="none" stroke="url(#gradCluster)" stroke-width="2" />

    <!-- K8s Wheel Icon -->
    <g transform="translate(26, 30)">
      <circle cx="30" cy="30" r="28" fill="#1e40af" fill-opacity="0.2" />
      <circle cx="30" cy="30" r="18" fill="#3b82f6">
        <animate attributeName="r" values="18;19;18" dur="3s" repeatCount="indefinite" />
      </circle>
      <circle cx="30" cy="30" r="6" fill="#1e293b" />
      <!-- Spokes -->
      <g stroke="#60a5fa" stroke-width="3.5" stroke-linecap="round">
        <line x1="30" y1="2" x2="30" y2="13" />
        <line x1="30" y1="47" x2="30" y2="58" />
        <line x1="2" y1="30" x2="13" y2="30" />
        <line x1="47" y1="30" x2="58" y2="30" />
        <line x1="10" y1="10" x2="18" y2="18" />
        <line x1="42" y1="42" x2="50" y2="50" />
        <line x1="50" y1="10" x2="42" y2="18" />
        <line x1="18" y1="42" x2="10" y2="50" />
      </g>
    </g>

    <!-- Text -->
    <text x="108" y="52" fill="#60a5fa" font-size="18" font-weight="700" letter-spacing="0.5">KUBERNETES CLUSTER</text>
    <text x="108" y="74" fill="#cbd5e1" font-size="12" opacity="0.85">Kind • K3d • Talos</text>

    <!-- Feature Pills Row 1 -->
    <g transform="translate(108, 90)">
      <rect x="0" y="0" width="42" height="20" rx="10" fill="#22c55e" fill-opacity="0.12" stroke="#22c55e" stroke-width="1.2" />
      <text x="21" y="14" text-anchor="middle" fill="#4ade80" font-size="8" font-weight="600">Flux</text>

      <rect x="48" y="0" width="52" height="20" rx="10" fill="#f59e0b" fill-opacity="0.12" stroke="#f59e0b" stroke-width="1.2" />
      <text x="74" y="14" text-anchor="middle" fill="#fbbf24" font-size="8" font-weight="600">ArgoCD</text>

      <rect x="106" y="0" width="42" height="20" rx="10" fill="#8b5cf6" fill-opacity="0.12" stroke="#8b5cf6" stroke-width="1.2" />
      <text x="127" y="14" text-anchor="middle" fill="#c084fc" font-size="8" font-weight="600">SOPS</text>

      <rect x="154" y="0" width="46" height="20" rx="10" fill="#3b82f6" fill-opacity="0.12" stroke="#3b82f6" stroke-width="1.2" />
      <text x="177" y="14" text-anchor="middle" fill="#60a5fa" font-size="8" font-weight="600">Cilium</text>

      <rect x="206" y="0" width="54" height="20" rx="10" fill="#ec4899" fill-opacity="0.12" stroke="#ec4899" stroke-width="1.2" />
      <text x="233" y="14" text-anchor="middle" fill="#f472b6" font-size="8" font-weight="600">Kyverno</text>

      <rect x="266" y="0" width="70" height="20" rx="10" fill="#06b6d4" fill-opacity="0.12" stroke="#06b6d4" stroke-width="1.2" />
      <text x="301" y="14" text-anchor="middle" fill="#22d3ee" font-size="8" font-weight="600">cert-manager</text>
    </g>

    <!-- Feature Pills Row 2 (additional features) -->
    <g transform="translate(108, 114)">
      <rect x="0" y="0" width="58" height="18" rx="9" fill="#10b981" fill-opacity="0.1" stroke="#10b981" stroke-width="1" opacity="0.7" />
      <text x="29" y="12" text-anchor="middle" fill="#6ee7b7" font-size="7" font-weight="500">metrics-server</text>

      <rect x="64" y="0" width="70" height="18" rx="9" fill="#f97316" fill-opacity="0.1" stroke="#f97316" stroke-width="1" opacity="0.7" />
      <text x="99" y="12" text-anchor="middle" fill="#fdba74" font-size="7" font-weight="500">local-registry</text>

      <rect x="140" y="0" width="48" height="18" rx="9" fill="#14b8a6" fill-opacity="0.1" stroke="#14b8a6" stroke-width="1" opacity="0.7" />
      <text x="164" y="12" text-anchor="middle" fill="#5eead4" font-size="7" font-weight="500">Calico</text>

      <rect x="194" y="0" width="62" height="18" rx="9" fill="#a855f7" fill-opacity="0.1" stroke="#a855f7" stroke-width="1" opacity="0.7" />
      <text x="225" y="12" text-anchor="middle" fill="#d8b4fe" font-size="7" font-weight="500">Gatekeeper</text>
    </g>

    <!-- Workloads Panel -->
    <rect x="430" y="22" width="245" height="96" rx="14" fill="#0c1222" stroke="#334155" stroke-width="1" />
    <text x="552" y="44" text-anchor="middle" fill="#94a3b8" font-size="10" font-weight="600" letter-spacing="1.5">WORKLOADS</text>

    <!-- Pod hexagons with enhanced styling - 6 pods for better balance -->
    <g transform="translate(442, 58)">
      <polygon points="15,0 30,9 30,27 15,36 0,27 0,9" fill="#22c55e" stroke="#16a34a" stroke-width="1.5">
        <animate attributeName="opacity" values="1;0.75;1" dur="2.5s" repeatCount="indefinite" />
      </polygon>
      <text x="15" y="22" text-anchor="middle" fill="#052e16" font-size="12" font-weight="700">✓</text>
    </g>
    <g transform="translate(480, 58)">
      <polygon points="15,0 30,9 30,27 15,36 0,27 0,9" fill="#3b82f6" stroke="#2563eb" stroke-width="1.5">
        <animate attributeName="opacity" values="1;0.8;1" dur="2.8s" begin="0.2s" repeatCount="indefinite" />
      </polygon>
      <text x="15" y="22" text-anchor="middle" fill="#1e3a8a" font-size="12" font-weight="700">✓</text>
    </g>
    <g transform="translate(518, 58)">
      <polygon points="15,0 30,9 30,27 15,36 0,27 0,9" fill="#8b5cf6" stroke="#7c3aed" stroke-width="1.5">
        <animate attributeName="opacity" values="1;0.75;1" dur="2.2s" begin="0.4s" repeatCount="indefinite" />
      </polygon>
      <text x="15" y="22" text-anchor="middle" fill="#3b0764" font-size="12" font-weight="700">✓</text>
    </g>
    <g transform="translate(556, 58)">
      <polygon points="15,0 30,9 30,27 15,36 0,27 0,9" fill="#f59e0b" stroke="#d97706" stroke-width="1.5">
        <animate attributeName="opacity" values="1;0.8;1" dur="2.6s" begin="0.6s" repeatCount="indefinite" />
      </polygon>
      <text x="15" y="22" text-anchor="middle" fill="#451a03" font-size="12" font-weight="700">✓</text>
    </g>
    <g transform="translate(594, 58)">
      <polygon points="15,0 30,9 30,27 15,36 0,27 0,9" fill="#06b6d4" stroke="#0891b2" stroke-width="1.5">
        <animate attributeName="opacity" values="1;0.8;1" dur="2.4s" begin="0.8s" repeatCount="indefinite" />
      </polygon>
      <text x="15" y="22" text-anchor="middle" fill="#083344" font-size="12" font-weight="700">✓</text>
    </g>
    <g transform="translate(632, 58)">
      <polygon points="15,0 30,9 30,27 15,36 0,27 0,9" fill="#334155" stroke="#475569" stroke-width="1.2" opacity="0.5" />
      <text x="15" y="22" text-anchor="middle" fill="#94a3b8" font-size="12">○</text>
    </g>
  </g>

  <!-- Subtle decorative compass in corner -->
  <g transform="translate(890, 570)" opacity="0.15">
    <circle r="18" fill="none" stroke="#4ade80" stroke-width="1" />
    <line x1="0" y1="-14" x2="0" y2="14" stroke="#4ade80" stroke-width="0.8" />
    <line x1="-14" y1="0" x2="14" y2="0" stroke="#4ade80" stroke-width="0.8" />
    <polygon points="0,-12 3,-4 -3,-4" fill="#4ade80" />
    <text x="0" y="-20" text-anchor="middle" fill="#4ade80" font-size="6" font-weight="600">N</text>
  </g>

</svg>
