<svg xmlns="http://www.w3.org/2000/svg" viewBox="0 0 900 580" font-family="'Inter', 'SF Pro Display', 'Segoe UI', system-ui, -apple-system, sans-serif">
  <defs>
    <!-- Premium Gradients -->
    <linearGradient id="gradDev" x1="0%" y1="0%" x2="100%" y2="100%">
      <stop offset="0%" stop-color="#fcd34d" />
      <stop offset="100%" stop-color="#f59e0b" />
    </linearGradient>
    <linearGradient id="gradProject" x1="0%" y1="0%" x2="100%" y2="100%">
      <stop offset="0%" stop-color="#c084fc" />
      <stop offset="100%" stop-color="#8b5cf6" />
    </linearGradient>
    <linearGradient id="gradKSail" x1="0%" y1="0%" x2="100%" y2="100%">
      <stop offset="0%" stop-color="#34d399" />
      <stop offset="50%" stop-color="#22c55e" />
      <stop offset="100%" stop-color="#16a34a" />
    </linearGradient>
    <linearGradient id="gradCluster" x1="0%" y1="0%" x2="100%" y2="100%">
      <stop offset="0%" stop-color="#60a5fa" />
      <stop offset="100%" stop-color="#3b82f6" />
    </linearGradient>
    <linearGradient id="bgGrad" x1="0%" y1="0%" x2="100%" y2="100%">
      <stop offset="0%" stop-color="#0c1222" />
      <stop offset="50%" stop-color="#0f172a" />
      <stop offset="100%" stop-color="#020617" />
    </linearGradient>
    <linearGradient id="sailGrad" x1="0%" y1="100%" x2="100%" y2="0%">
      <stop offset="0%" stop-color="#22c55e" />
      <stop offset="50%" stop-color="#4ade80" />
      <stop offset="100%" stop-color="#86efac" />
    </linearGradient>
    <linearGradient id="hullGrad" x1="0%" y1="0%" x2="0%" y2="100%">
      <stop offset="0%" stop-color="#166534" />
      <stop offset="100%" stop-color="#14532d" />
    </linearGradient>
    <linearGradient id="oceanGrad" x1="0%" y1="0%" x2="0%" y2="100%">
      <stop offset="0%" stop-color="#0ea5e9" stop-opacity="0.15" />
      <stop offset="100%" stop-color="#0284c7" stop-opacity="0.05" />
    </linearGradient>

    <!-- Enhanced Glow Filters -->
    <filter id="glowDev" x="-50%" y="-50%" width="200%" height="200%">
      <feGaussianBlur in="SourceGraphic" stdDeviation="10" result="blur" />
      <feColorMatrix in="blur" type="matrix" values="1 0.8 0 0 0  0.6 0.4 0 0 0  0 0 0 0 0  0 0 0 0.4 0" />
      <feMerge>
        <feMergeNode />
        <feMergeNode in="SourceGraphic" />
      </feMerge>
    </filter>
    <filter id="glowProject" x="-50%" y="-50%" width="200%" height="200%">
      <feGaussianBlur in="SourceGraphic" stdDeviation="8" result="blur" />
      <feColorMatrix in="blur" type="matrix" values="0.6 0 0.8 0 0  0.2 0 0.6 0 0  0.8 0 1 0 0  0 0 0 0.35 0" />
      <feMerge>
        <feMergeNode />
        <feMergeNode in="SourceGraphic" />
      </feMerge>
    </filter>
    <filter id="glowKSail" x="-50%" y="-50%" width="200%" height="200%">
      <feGaussianBlur in="SourceGraphic" stdDeviation="12" result="blur" />
      <feColorMatrix in="blur" type="matrix" values="0.2 0 0 0 0  0.9 0.6 0.3 0 0  0.4 0.4 0.2 0 0  0 0 0 0.45 0" />
      <feMerge>
        <feMergeNode />
        <feMergeNode in="SourceGraphic" />
      </feMerge>
    </filter>
    <filter id="glowCluster" x="-50%" y="-50%" width="200%" height="200%">
      <feGaussianBlur in="SourceGraphic" stdDeviation="8" result="blur" />
      <feColorMatrix in="blur" type="matrix" values="0.3 0.3 1 0 0  0.3 0.5 1 0 0  0.6 0.8 1 0 0  0 0 0 0.35 0" />
      <feMerge>
        <feMergeNode />
        <feMergeNode in="SourceGraphic" />
      </feMerge>
    </filter>
    <filter id="softShadow" x="-20%" y="-20%" width="140%" height="140%">
      <feDropShadow dx="0" dy="4" stdDeviation="8" flood-color="#000" flood-opacity="0.35" />
    </filter>

    <!-- Markers -->
    <marker id="arrowDev" markerWidth="10" markerHeight="8" refX="9" refY="4" orient="auto">
      <path d="M0 0 L10 4 L0 8 L2 4 Z" fill="#f59e0b" />
    </marker>
    <marker id="arrowKSail" markerWidth="10" markerHeight="8" refX="9" refY="4" orient="auto">
      <path d="M0 0 L10 4 L0 8 L2 4 Z" fill="#22c55e" />
    </marker>
    <marker id="arrowGray" markerWidth="10" markerHeight="8" refX="9" refY="4" orient="auto">
      <path d="M0 0 L10 4 L0 8 L2 4 Z" fill="#64748b" />
    </marker>

    <!-- Grid Pattern -->
    <pattern id="grid" x="0" y="0" width="40" height="40" patternUnits="userSpaceOnUse">
      <circle cx="20" cy="20" r="0.6" fill="#334155" fill-opacity="0.35" />
    </pattern>

    <!-- Subtle wave accent -->
    <pattern id="waves" x="0" y="0" width="120" height="12" patternUnits="userSpaceOnUse">
      <path d="M0 6 Q30 2 60 6 T120 6" fill="none" stroke="#22d3ee" stroke-width="0.4" stroke-opacity="0.15" />
    </pattern>
  </defs>

  <!-- Background -->
  <rect width="900" height="580" fill="url(#bgGrad)" />
  <rect width="900" height="580" fill="url(#grid)" />

  <!-- Subtle ocean accent at bottom -->
  <rect x="0" y="480" width="900" height="100" fill="url(#oceanGrad)" />
  <rect x="0" y="540" width="900" height="40" fill="url(#waves)" opacity="0.4">
    <animate attributeName="x" from="0" to="-120" dur="15s" repeatCount="indefinite" />
  </rect>

  <!-- Connection Lines -->
  <!-- Developer to Project -->
  <path d="M 370 110 Q 280 125, 235 170" fill="none" stroke="url(#gradDev)" stroke-width="2.5" stroke-dasharray="8,5" marker-end="url(#arrowDev)" opacity="0.8">
    <animate attributeName="stroke-dashoffset" from="26" to="0" dur="2s" repeatCount="indefinite" />
  </path>
  <g transform="translate(275, 123)">
    <rect x="-18" y="-10" width="36" height="16" rx="4" fill="#1e293b" stroke="#f59e0b" stroke-width="1" opacity="0.9" />
    <text x="0" y="3" text-anchor="middle" fill="#fcd34d" font-size="9" font-weight="600">edit</text>
  </g>

  <!-- Developer to KSail -->
  <path d="M 530 110 Q 620 125, 665 170" fill="none" stroke="url(#gradDev)" stroke-width="2.5" marker-end="url(#arrowDev)" opacity="0.85" />
  <g transform="translate(610, 123)">
    <rect x="-16" y="-10" width="32" height="16" rx="4" fill="#1e293b" stroke="#f59e0b" stroke-width="1" opacity="0.9" />
    <text x="0" y="3" text-anchor="middle" fill="#fcd34d" font-size="9" font-weight="600">run</text>
  </g>

  <!-- Project <-> KSail sync line -->
  <line x1="350" y1="255" x2="550" y2="255" stroke="#475569" stroke-width="2" stroke-dasharray="10,5" opacity="0.5">
    <animate attributeName="stroke-dashoffset" from="30" to="0" dur="1.5s" repeatCount="indefinite" />
  </line>
  <g transform="translate(450, 255)">
    <circle r="28" fill="#0c1222" stroke="#334155" stroke-width="2" />
    <circle r="22" fill="#1e293b" />
    <!-- Sync arrows with better styling -->
    <path d="M-9 -5 A12 12 0 1 1 9 -5" fill="none" stroke="#4ade80" stroke-width="2.5" stroke-linecap="round" />
    <polygon points="9,-5 14,-9 13,-1" fill="#4ade80" />
    <path d="M9 5 A12 12 0 1 1 -9 5" fill="none" stroke="#c084fc" stroke-width="2.5" stroke-linecap="round" />
    <polygon points="-9,5 -14,9 -13,1" fill="#c084fc" />
  </g>
  <!-- Config sync label -->
  <g transform="translate(450, 298)">
    <rect x="-36" y="-9" width="72" height="16" rx="4" fill="#0c1222" stroke="#334155" stroke-width="1" opacity="0.8" />
    <text x="0" y="4" text-anchor="middle" fill="#64748b" font-size="8" font-weight="500">reads config</text>
  </g>

  <!-- KSail to Cluster -->
  <path d="M 665 325 Q 640 395, 560 430" fill="none" stroke="url(#gradKSail)" stroke-width="3" marker-end="url(#arrowKSail)" />
  <g transform="translate(625, 378)">
    <rect x="-32" y="-10" width="64" height="16" rx="4" fill="#0c1222" stroke="#22c55e" stroke-width="1" />
    <text x="0" y="3" text-anchor="middle" fill="#4ade80" font-size="9" font-weight="600">provisions</text>
  </g>

  <!-- Project to Cluster (GitOps) -->
  <path d="M 235 325 Q 260 395, 340 430" fill="none" stroke="#64748b" stroke-width="2" stroke-dasharray="6,4" marker-end="url(#arrowGray)" opacity="0.5">
    <animate attributeName="stroke-dashoffset" from="20" to="0" dur="2s" repeatCount="indefinite" />
  </path>
  <g transform="translate(275, 382)">
    <rect x="-26" y="-10" width="52" height="16" rx="4" fill="#0c1222" stroke="#64748b" stroke-width="1" opacity="0.7" />
    <text x="0" y="3" text-anchor="middle" fill="#94a3b8" font-size="8" font-weight="500">GitOps</text>
  </g>

  <!-- ===== DEVELOPER CARD ===== -->
  <g transform="translate(350, 25)" filter="url(#glowDev)">
    <rect width="200" height="85" rx="16" fill="#1e293b" filter="url(#softShadow)" />
    <rect width="200" height="85" rx="16" fill="none" stroke="url(#gradDev)" stroke-width="2" />
    <!-- Icon Circle -->
    <circle cx="42" cy="42" r="24" fill="#f59e0b" fill-opacity="0.12" />
    <g transform="translate(27, 26)">
      <circle cx="15" cy="9" r="7" fill="#fbbf24" />
      <path d="M3 28 C3 20, 10 16, 15 16 C20 16, 27 20, 27 28" fill="#fbbf24" />
    </g>
    <!-- Text -->
    <text x="80" y="38" fill="#fcd34d" font-size="16" font-weight="700" letter-spacing="0.5">DEVELOPER</text>
    <text x="80" y="56" fill="#cbd5e1" font-size="11" opacity="0.85">Your local machine</text>
  </g>

  <!-- ===== PROJECT CARD ===== -->
  <g transform="translate(100, 175)" filter="url(#glowProject)">
    <rect width="245" height="150" rx="16" fill="#1e293b" filter="url(#softShadow)" />
    <rect width="245" height="150" rx="16" fill="none" stroke="url(#gradProject)" stroke-width="2" />
    <!-- Folder Icon -->
    <g transform="translate(20, 20)">
      <path d="M0 10 L0 34 Q0 38, 4 38 L34 38 Q38 38, 38 34 L38 14 Q38 10, 34 10 L22 10 L18 5 L4 5 Q0 5, 0 10 Z" fill="#9333ea" />
      <path d="M0 14 L38 14 L38 34 Q38 38, 34 38 L4 38 Q0 38, 0 34 Z" fill="#a855f7" />
      <path d="M0 14 L38 14 L38 18 L0 18 Z" fill="#c084fc" opacity="0.5" />
    </g>
    <!-- Text -->
    <text x="68" y="40" fill="#c084fc" font-size="16" font-weight="700" letter-spacing="0.5">PROJECT</text>
    <text x="68" y="56" fill="#cbd5e1" font-size="11" opacity="0.85">Git Repository</text>

    <!-- File Browser -->
    <rect x="16" y="76" width="213" height="58" rx="10" fill="#0c1222" stroke="#1e293b" stroke-width="1" />
    <!-- Git branch visualization -->
    <g transform="translate(30, 88)">
      <circle cx="0" cy="0" r="5" fill="#a855f7" />
      <line x1="0" y1="5" x2="0" y2="26" stroke="#7c3aed" stroke-width="2.5" stroke-linecap="round" />
      <circle cx="0" cy="30" r="4" fill="#8b5cf6" />
      <circle cx="15" cy="15" r="4" fill="#c084fc" />
      <line x1="2" y1="5" x2="13" y2="13" stroke="#9333ea" stroke-width="2" stroke-linecap="round" />
    </g>
    <!-- Folder icon -->
    <g transform="translate(52, 88)">
      <path d="M0 2 L0 10 Q0 11, 1 11 L11 11 Q12 11, 12 10 L12 4 Q12 3, 11 3 L7 3 L5.5 1.5 L1 1.5 Q0 1.5, 0 2 Z" fill="#a855f7" />
    </g>
    <text x="68" y="100" fill="#e2e8f0" font-size="11" font-family="'JetBrains Mono', 'SF Mono', 'Fira Code', monospace">k8s/</text>
    <!-- File icon -->
    <g transform="translate(52, 107)">
      <path d="M1 0 L7 0 L10 3 L10 12 Q10 13, 9 13 L1 13 Q0 13, 0 12 L0 1 Q0 0, 1 0 Z" fill="#64748b" />
      <path d="M7 0 L7 3 L10 3" fill="none" stroke="#94a3b8" stroke-width="0.5" />
    </g>
    <text x="68" y="120" fill="#94a3b8" font-size="11" font-family="'JetBrains Mono', 'SF Mono', 'Fira Code', monospace">ksail.yaml</text>
  </g>

  <!-- ===== KSAIL CARD (Main Hero) ===== -->
  <g transform="translate(555, 175)" filter="url(#glowKSail)">
    <rect width="245" height="150" rx="16" fill="#1e293b" filter="url(#softShadow)" />
    <rect width="245" height="150" rx="16" fill="none" stroke="url(#gradKSail)" stroke-width="2.5" />

    <!-- Enhanced Sailboat Icon -->
    <g transform="translate(18, 14)">
      <!-- Water reflection -->
      <ellipse cx="24" cy="48" rx="20" ry="4" fill="#22c55e" opacity="0.2" />
      <!-- Hull -->
      <path d="M4 42 Q4 48, 14 48 L34 48 Q44 48, 44 42 L38 36 L10 36 Z" fill="url(#hullGrad)" />
      <!-- Hull highlight -->
      <path d="M10 36 L38 36 L40 40 L8 40 Z" fill="#22c55e" opacity="0.3" />
      <!-- Mast -->
      <rect x="22" y="8" width="4" height="30" rx="1" fill="#14532d" />
      <!-- Main Sail -->
      <path d="M26 10 L26 34 L42 34 Q44 28, 42 22 L34 12 Q30 8, 26 10 Z" fill="url(#sailGrad)" opacity="0.95" />
      <!-- Sail fold line -->
      <line x1="26" y1="14" x2="38" y2="28" stroke="#16a34a" stroke-width="0.5" opacity="0.4" />
      <!-- Front Sail (jib) -->
      <path d="M22 10 L22 32 L8 32 Q6 28, 8 24 L16 12 Q20 8, 22 10 Z" fill="#4ade80" opacity="0.7" />
      <!-- Flag -->
      <path d="M24 8 L24 2 L32 5 L24 8" fill="#ef4444" />
    </g>

    <!-- Text -->
    <text x="68" y="36" fill="#4ade80" font-size="20" font-weight="800" letter-spacing="1">KSAIL</text>
    <text x="68" y="52" fill="#86efac" font-size="10" font-weight="600" letter-spacing="0.5">One Binary • All Tools</text>

    <!-- Terminal Window -->
    <rect x="16" y="76" width="213" height="58" rx="10" fill="#020617" stroke="#16532d" stroke-width="1" />
    <!-- Window controls -->
    <circle cx="30" cy="90" r="4.5" fill="#ef4444" />
    <circle cx="45" cy="90" r="4.5" fill="#eab308" />
    <circle cx="60" cy="90" r="4.5" fill="#22c55e" />
    <!-- Command -->
    <text x="26" y="118" fill="#4ade80" font-size="12" font-family="'JetBrains Mono', 'SF Mono', 'Fira Code', monospace" font-weight="600">$ ksail cluster create</text>
    <rect x="186" y="105" width="10" height="17" rx="2" fill="#4ade80" opacity="0.9">
      <animate attributeName="opacity" values="0.9;0.2;0.9" dur="1s" repeatCount="indefinite" />
    </rect>
  </g>

  <!-- ===== KUBERNETES CLUSTER CARD ===== -->
  <g transform="translate(140, 430)" filter="url(#glowCluster)">
    <rect width="620" height="125" rx="18" fill="#1e293b" filter="url(#softShadow)" />
    <rect width="620" height="125" rx="18" fill="none" stroke="url(#gradCluster)" stroke-width="2" />

    <!-- K8s Wheel Icon -->
    <g transform="translate(26, 32)">
      <circle cx="28" cy="28" r="26" fill="#1e40af" fill-opacity="0.2" />
      <circle cx="28" cy="28" r="16" fill="#3b82f6">
        <animate attributeName="r" values="16;17;16" dur="3s" repeatCount="indefinite" />
      </circle>
      <circle cx="28" cy="28" r="5" fill="#1e293b" />
      <!-- Spokes -->
      <g stroke="#60a5fa" stroke-width="3.5" stroke-linecap="round">
        <line x1="28" y1="2" x2="28" y2="12" />
        <line x1="28" y1="44" x2="28" y2="54" />
        <line x1="2" y1="28" x2="12" y2="28" />
        <line x1="44" y1="28" x2="54" y2="28" />
        <line x1="9" y1="9" x2="16" y2="16" />
        <line x1="40" y1="40" x2="47" y2="47" />
        <line x1="47" y1="9" x2="40" y2="16" />
        <line x1="16" y1="40" x2="9" y2="47" />
      </g>
    </g>

    <!-- Text -->
    <text x="98" y="52" fill="#60a5fa" font-size="18" font-weight="700" letter-spacing="0.5">KUBERNETES CLUSTER</text>
    <text x="98" y="74" fill="#cbd5e1" font-size="12" opacity="0.85">Kind • K3d • Talos</text>

    <!-- Feature Pills Row -->
    <g transform="translate(98, 88)">
      <rect x="0" y="0" width="48" height="20" rx="10" fill="#22c55e" fill-opacity="0.12" stroke="#22c55e" stroke-width="1" />
      <text x="24" y="14" text-anchor="middle" fill="#4ade80" font-size="9" font-weight="600">Flux</text>

      <rect x="54" y="0" width="58" height="20" rx="10" fill="#f59e0b" fill-opacity="0.12" stroke="#f59e0b" stroke-width="1" />
      <text x="83" y="14" text-anchor="middle" fill="#fbbf24" font-size="9" font-weight="600">ArgoCD</text>

      <rect x="118" y="0" width="48" height="20" rx="10" fill="#8b5cf6" fill-opacity="0.12" stroke="#8b5cf6" stroke-width="1" />
      <text x="142" y="14" text-anchor="middle" fill="#c084fc" font-size="9" font-weight="600">SOPS</text>

      <rect x="172" y="0" width="52" height="20" rx="10" fill="#3b82f6" fill-opacity="0.12" stroke="#3b82f6" stroke-width="1" />
      <text x="198" y="14" text-anchor="middle" fill="#60a5fa" font-size="9" font-weight="600">Cilium</text>

      <rect x="230" y="0" width="56" height="20" rx="10" fill="#ec4899" fill-opacity="0.12" stroke="#ec4899" stroke-width="1" />
      <text x="258" y="14" text-anchor="middle" fill="#f472b6" font-size="9" font-weight="600">Kyverno</text>
    </g>

    <!-- Workloads Panel -->
    <rect x="380" y="22" width="215" height="82" rx="12" fill="#0c1222" stroke="#1e293b" stroke-width="1" />
    <text x="487" y="42" text-anchor="middle" fill="#94a3b8" font-size="10" font-weight="600" letter-spacing="1.5">WORKLOADS</text>

    <!-- Pod hexagons with enhanced styling -->
    <g transform="translate(398, 54)">
      <polygon points="15,0 30,9 30,27 15,36 0,27 0,9" fill="#22c55e" stroke="#16a34a" stroke-width="1.5">
        <animate attributeName="opacity" values="1;0.75;1" dur="2.5s" repeatCount="indefinite" />
      </polygon>
      <text x="15" y="22" text-anchor="middle" fill="#052e16" font-size="11" font-weight="700">✓</text>
    </g>
    <g transform="translate(436, 54)">
      <polygon points="15,0 30,9 30,27 15,36 0,27 0,9" fill="#3b82f6" stroke="#2563eb" stroke-width="1.5" />
      <text x="15" y="22" text-anchor="middle" fill="#1e3a8a" font-size="11" font-weight="700">✓</text>
    </g>
    <g transform="translate(474, 54)">
      <polygon points="15,0 30,9 30,27 15,36 0,27 0,9" fill="#8b5cf6" stroke="#7c3aed" stroke-width="1.5" />
      <text x="15" y="22" text-anchor="middle" fill="#3b0764" font-size="11" font-weight="700">✓</text>
    </g>
    <g transform="translate(512, 54)">
      <polygon points="15,0 30,9 30,27 15,36 0,27 0,9" fill="#f59e0b" stroke="#d97706" stroke-width="1.5" />
      <text x="15" y="22" text-anchor="middle" fill="#451a03" font-size="11" font-weight="700">✓</text>
    </g>
    <g transform="translate(550, 54)">
      <polygon points="15,0 30,9 30,27 15,36 0,27 0,9" fill="#334155" stroke="#475569" stroke-width="1" opacity="0.5" />
      <text x="15" y="22" text-anchor="middle" fill="#94a3b8" font-size="11">○</text>
    </g>
  </g>

</svg>
