<svg xmlns="http://www.w3.org/2000/svg" viewBox="0 0 800 520" font-family="'SF Pro Display', 'Segoe UI', system-ui, -apple-system, sans-serif">
  <defs>
    <!-- Gradients -->
    <linearGradient id="gradDev" x1="0%" y1="0%" x2="100%" y2="100%">
      <stop offset="0%" stop-color="#fcd34d" />
      <stop offset="100%" stop-color="#f59e0b" />
    </linearGradient>
    <linearGradient id="gradProject" x1="0%" y1="0%" x2="100%" y2="100%">
      <stop offset="0%" stop-color="#c084fc" />
      <stop offset="100%" stop-color="#8b5cf6" />
    </linearGradient>
    <linearGradient id="gradKSail" x1="0%" y1="0%" x2="100%" y2="100%">
      <stop offset="0%" stop-color="#4ade80" />
      <stop offset="100%" stop-color="#22c55e" />
    </linearGradient>
    <linearGradient id="gradCluster" x1="0%" y1="0%" x2="100%" y2="100%">
      <stop offset="0%" stop-color="#60a5fa" />
      <stop offset="100%" stop-color="#3b82f6" />
    </linearGradient>
    <linearGradient id="bgGrad" x1="0%" y1="0%" x2="0%" y2="100%">
      <stop offset="0%" stop-color="#0f172a" />
      <stop offset="100%" stop-color="#020617" />
    </linearGradient>

    <!-- Glow Filters -->
    <filter id="glowDev" x="-40%" y="-40%" width="180%" height="180%">
      <feGaussianBlur in="SourceGraphic" stdDeviation="8" result="blur" />
      <feColorMatrix in="blur" type="matrix" values="1 0 0 0 0  0 0.8 0 0 0  0 0 0.2 0 0  0 0 0 0.4 0" />
      <feMerge>
        <feMergeNode />
        <feMergeNode in="SourceGraphic" />
      </feMerge>
    </filter>
    <filter id="glowProject" x="-40%" y="-40%" width="180%" height="180%">
      <feGaussianBlur in="SourceGraphic" stdDeviation="8" result="blur" />
      <feColorMatrix in="blur" type="matrix" values="0.7 0 0 0 0  0 0.3 0 0 0  0 0 1 0 0  0 0 0 0.35 0" />
      <feMerge>
        <feMergeNode />
        <feMergeNode in="SourceGraphic" />
      </feMerge>
    </filter>
    <filter id="glowKSail" x="-40%" y="-40%" width="180%" height="180%">
      <feGaussianBlur in="SourceGraphic" stdDeviation="8" result="blur" />
      <feColorMatrix in="blur" type="matrix" values="0.2 0 0 0 0  0 0.9 0 0 0  0 0 0.5 0 0  0 0 0 0.35 0" />
      <feMerge>
        <feMergeNode />
        <feMergeNode in="SourceGraphic" />
      </feMerge>
    </filter>
    <filter id="glowCluster" x="-40%" y="-40%" width="180%" height="180%">
      <feGaussianBlur in="SourceGraphic" stdDeviation="8" result="blur" />
      <feColorMatrix in="blur" type="matrix" values="0.3 0 0 0 0  0 0.6 0 0 0  0 0 1 0 0  0 0 0 0.35 0" />
      <feMerge>
        <feMergeNode />
        <feMergeNode in="SourceGraphic" />
      </feMerge>
    </filter>
    <filter id="innerShadow" x="-10%" y="-10%" width="120%" height="120%">
      <feOffset dx="0" dy="2" />
      <feGaussianBlur stdDeviation="3" result="offset-blur" />
      <feComposite operator="out" in="SourceGraphic" in2="offset-blur" result="inverse" />
      <feFlood flood-color="black" flood-opacity="0.15" result="color" />
      <feComposite operator="in" in="color" in2="inverse" result="shadow" />
      <feComposite operator="over" in="shadow" in2="SourceGraphic" />
    </filter>

    <!-- Markers -->
    <marker id="arrowDev" markerWidth="8" markerHeight="6" refX="7" refY="3" orient="auto">
      <polygon points="0 0, 8 3, 0 6" fill="#f59e0b" opacity="0.9" />
    </marker>
    <marker id="arrowKSail" markerWidth="8" markerHeight="6" refX="7" refY="3" orient="auto">
      <polygon points="0 0, 8 3, 0 6" fill="#22c55e" />
    </marker>
    <marker id="arrowGray" markerWidth="8" markerHeight="6" refX="7" refY="3" orient="auto">
      <polygon points="0 0, 8 3, 0 6" fill="#64748b" />
    </marker>

    <!-- Dot Pattern -->
    <pattern id="dots" x="0" y="0" width="24" height="24" patternUnits="userSpaceOnUse">
      <circle cx="2" cy="2" r="1" fill="#334155" fill-opacity="0.5" />
    </pattern>
  </defs>

  <!-- Background -->
  <rect width="800" height="520" fill="url(#bgGrad)" />
  <rect width="800" height="520" fill="url(#dots)" />

  <!-- Connection Lines -->
  <!-- Developer to Project (dashed = writes code) -->
  <path d="M 355 115 Q 280 120, 220 175" fill="none" stroke="#f59e0b" stroke-width="2.5" stroke-dasharray="6,4" marker-end="url(#arrowDev)" opacity="0.7" />
  <text x="255" y="130" fill="#cbd5e1" font-size="10" font-weight="500">edit</text>
  <!-- Developer to KSail (solid = runs commands) -->
  <path d="M 445 115 Q 520 120, 580 175" fill="none" stroke="#f59e0b" stroke-width="2.5" marker-end="url(#arrowDev)" opacity="0.85" />
  <text x="510" y="130" fill="#cbd5e1" font-size="10" font-weight="500">run</text>

  <!-- Project <-> KSail sync line -->
  <line x1="330" y1="250" x2="470" y2="250" stroke="#475569" stroke-width="2" stroke-dasharray="8,4" opacity="0.6">
    <animate attributeName="stroke-dashoffset" from="24" to="0" dur="1.2s" repeatCount="indefinite" />
  </line>
  <g transform="translate(400, 250)">
    <circle r="22" fill="#1e293b" stroke="#64748b" stroke-width="2" />
    <path d="M-6 -3 A7 7 0 1 1 6 -3" fill="none" stroke="#94a3b8" stroke-width="1.5" />
    <polygon points="6,-3 9,-6 9,0" fill="#94a3b8" />
    <path d="M6 3 A7 7 0 1 1 -6 3" fill="none" stroke="#94a3b8" stroke-width="1.5" />
    <polygon points="-6,3 -9,6 -9,0" fill="#94a3b8" />
  </g>

  <!-- KSail to Cluster -->
  <path d="M 580 310 Q 560 360, 480 395" fill="none" stroke="#22c55e" stroke-width="3" marker-end="url(#arrowKSail)" />
  <text x="530" y="365" fill="#86efac" font-size="10" font-weight="500">deploys</text>

  <!-- Project to Cluster (indirect/GitOps) -->
  <path d="M 220 310 Q 240 360, 320 395" fill="none" stroke="#64748b" stroke-width="2" stroke-dasharray="5,4" marker-end="url(#arrowGray)" opacity="0.5" />

  <!-- ===== DEVELOPER CARD ===== -->
  <g transform="translate(300, 35)" filter="url(#glowDev)">
    <rect width="200" height="80" rx="14" fill="#1e293b" />
    <rect width="200" height="80" rx="14" fill="none" stroke="url(#gradDev)" stroke-width="2" />
    <!-- Icon Circle -->
    <circle cx="40" cy="40" r="22" fill="#f59e0b" fill-opacity="0.15" />
    <g transform="translate(26, 26)">
      <circle cx="14" cy="8" r="6" fill="#fbbf24" />
      <path d="M4 24 C4 18, 10 15, 14 15 C18 15, 24 18, 24 24" fill="#fbbf24" />
    </g>
    <!-- Text -->
    <text x="75" y="35" fill="#fcd34d" font-size="15" font-weight="700" letter-spacing="0.5">DEVELOPER</text>
    <text x="75" y="55" fill="#cbd5e1" font-size="11">Your local machine</text>
  </g>

  <!-- ===== PROJECT CARD ===== -->
  <g transform="translate(100, 180)" filter="url(#glowProject)">
    <rect width="220" height="130" rx="14" fill="#1e293b" />
    <rect width="220" height="130" rx="14" fill="none" stroke="url(#gradProject)" stroke-width="2" />
    <!-- Icon -->
    <g transform="translate(22, 22)">
      <path d="M0 8 L0 28 Q0 32, 4 32 L28 32 Q32 32, 32 28 L32 12 Q32 8, 28 8 L18 8 L14 4 L4 4 Q0 4, 0 8 Z" fill="#a855f7" />
      <path d="M0 12 L32 12 L32 28 Q32 32, 28 32 L4 32 Q0 32, 0 28 Z" fill="#c084fc" />
    </g>
    <!-- Text -->
    <text x="65" y="35" fill="#c084fc" font-size="15" font-weight="700" letter-spacing="0.5">PROJECT</text>
    <text x="65" y="55" fill="#cbd5e1" font-size="11">Git Repository</text>

    <!-- File Browser -->
    <rect x="18" y="70" width="184" height="45" rx="8" fill="#0f172a" />
    <!-- Git branch indicator -->
    <circle cx="34" cy="82" r="5" fill="#a855f7" />
    <line x1="34" y1="87" x2="34" y2="98" stroke="#7c3aed" stroke-width="2.5" />
    <circle cx="34" cy="102" r="4" fill="#8b5cf6" />
    <circle cx="46" cy="92" r="4" fill="#c084fc" />
    <line x1="34" y1="90" x2="46" y2="92" stroke="#9333ea" stroke-width="2" />
    <!-- Files -->
    <text x="55" y="88" fill="#e2e8f0" font-size="10" font-family="'SF Mono', 'Fira Code', monospace">k8s/clusters/</text>
    <text x="55" y="102" fill="#94a3b8" font-size="10" font-family="'SF Mono', 'Fira Code', monospace">ksail.yaml</text>
  </g>

  <!-- ===== KSAIL CARD ===== -->
  <g transform="translate(480, 180)" filter="url(#glowKSail)">
    <rect width="220" height="130" rx="14" fill="#1e293b" />
    <rect width="220" height="130" rx="14" fill="none" stroke="url(#gradKSail)" stroke-width="2" />
    <!-- Terminal Icon -->
    <g transform="translate(22, 22)">
      <rect width="32" height="26" rx="4" fill="#166534" />
      <rect x="2" y="6" width="28" height="18" rx="2" fill="#052e16" />
      <path d="M6 12 L10 16 L6 20" stroke="#4ade80" stroke-width="1.5" fill="none" stroke-linecap="round" stroke-linejoin="round" />
      <line x1="13" y1="19" x2="20" y2="19" stroke="#4ade80" stroke-width="1.5" stroke-linecap="round" />
    </g>
    <!-- Text -->
    <text x="65" y="35" fill="#4ade80" font-size="15" font-weight="700" letter-spacing="0.5">KSAIL</text>
    <text x="65" y="55" fill="#cbd5e1" font-size="11">CLI Tool (Go)</text>

    <!-- Terminal Window -->
    <rect x="18" y="70" width="184" height="45" rx="8" fill="#020617" stroke="#1e293b" stroke-width="1" />
    <!-- Window controls -->
    <circle cx="30" cy="80" r="4" fill="#ef4444" />
    <circle cx="42" cy="80" r="4" fill="#eab308" />
    <circle cx="54" cy="80" r="4" fill="#22c55e" />
    <!-- Command -->
    <text x="26" y="102" fill="#4ade80" font-size="12" font-family="'SF Mono', 'Fira Code', monospace" font-weight="600">$ ksail up</text>
    <rect x="98" y="92" width="8" height="14" fill="#4ade80" opacity="0.8">
      <animate attributeName="opacity" values="0.8;0.2;0.8" dur="1s" repeatCount="indefinite" />
    </rect>
  </g>

  <!-- ===== KUBERNETES CLUSTER CARD ===== -->
  <g transform="translate(140, 395)" filter="url(#glowCluster)">
    <rect width="520" height="105" rx="14" fill="#1e293b" />
    <rect width="520" height="105" rx="14" fill="none" stroke="url(#gradCluster)" stroke-width="2" />
    <!-- K8s Wheel Icon -->
    <g transform="translate(25, 25)">
      <circle cx="22" cy="22" r="20" fill="#1e40af" fill-opacity="0.3" />
      <circle cx="22" cy="22" r="12" fill="#3b82f6" />
      <circle cx="22" cy="22" r="4" fill="#1e293b" />
      <!-- Spokes -->
      <g stroke="#60a5fa" stroke-width="3" stroke-linecap="round">
        <line x1="22" y1="2" x2="22" y2="10" />
        <line x1="22" y1="34" x2="22" y2="42" />
        <line x1="2" y1="22" x2="10" y2="22" />
        <line x1="34" y1="22" x2="42" y2="22" />
        <line x1="8" y1="8" x2="14" y2="14" />
        <line x1="30" y1="30" x2="36" y2="36" />
        <line x1="36" y1="8" x2="30" y2="14" />
        <line x1="14" y1="30" x2="8" y2="36" />
      </g>
    </g>
    <!-- Text -->
    <text x="85" y="48" fill="#60a5fa" font-size="17" font-weight="700" letter-spacing="0.5">KUBERNETES CLUSTER</text>
    <text x="85" y="72" fill="#cbd5e1" font-size="12">Local (Kind) or Remote (Talos)</text>

    <!-- Workloads Panel -->
    <rect x="300" y="22" width="195" height="62" rx="8" fill="#0f172a" />
    <text x="397" y="40" text-anchor="middle" fill="#94a3b8" font-size="9" font-weight="600" letter-spacing="1">WORKLOADS</text>

    <!-- Pod hexagons with status -->
    <g transform="translate(330, 52)">
      <polygon points="12,0 24,7 24,21 12,28 0,21 0,7" fill="#22c55e" stroke="#16a34a" stroke-width="1">
        <animate attributeName="opacity" values="1;0.6;1" dur="2s" repeatCount="indefinite" />
      </polygon>
    </g>
    <g transform="translate(360, 52)">
      <polygon points="12,0 24,7 24,21 12,28 0,21 0,7" fill="#3b82f6" stroke="#2563eb" stroke-width="1" />
    </g>
    <g transform="translate(390, 52)">
      <polygon points="12,0 24,7 24,21 12,28 0,21 0,7" fill="#8b5cf6" stroke="#7c3aed" stroke-width="1" />
    </g>
    <g transform="translate(420, 52)">
      <polygon points="12,0 24,7 24,21 12,28 0,21 0,7" fill="#475569" stroke="#334155" stroke-width="1" opacity="0.5" />
    </g>
  </g>

</svg>
